<svg version="1.1" xmlns="http://www.w3.org/2000/svg" xmlns:xlink="http://www.w3.org/1999/xlink" x="0px" y="0px" viewBox="0 0 863.9 473.9" enable-background="new 0 0 863.9 473.9" xml:space="preserve">
<g id="dbamap">
<g id="dbanetworks">
  <g id="apacarea">
	<g id="makati">
		<rect x="714.7" y="276" fill="#dd0000" width="3.2" height="3.2"/>
 	</g>
	<g id="sydney">
		<rect x="774.3" y="400.5" fill="#dd0000" width="3.2" height="3.2"/>
 	</g>
	<g id="shanghai">
		<rect x="703.9" y="221.8" fill="#dd0000" width="3.2" height="3.2"/>
 	</g>
	<g id="hongkong">
		<rect x="687.6" y="238" fill="#dd0000" width="3.2" height="3.2"/>
 	</g>
	<g id="auckland">
		<rect x="839.2" y="405.9" fill="#dd0000" width="3.2" height="3.2"/>
 	</g>
	<g id="jakarta">
		<rect x="676.8" y="324.7" fill="#dd0000" width="3.2" height="3.2"/>
 	</g>
	<g id="taipei">
		<rect x="709.3" y="232.6" fill="#dd0000" width="3.2" height="3.2"/>
 	</g>
	<g id="seoul">
		<rect x="720.1" y="200.1" fill="#dd0000" width="3.2" height="3.2"/>
 	</g>
	<g id="yangon">
				<rect x="649.7" y="265.1" fill="#dd0000" width="3.2" height="3.2"/>
 	</g>
	<g id="kualalumpur">
				<rect x="655.1" y="292.2" fill="#dd0000" width="3.2" height="3.2"/>
 	</g>
	<g id="singapore">
				<rect x="665.9" y="303" fill="#dd0000" width="3.2" height="3.2"/>
 	</g>
	<g id="beijing">
			<rect x="703.9" y="189.3" fill="#dd0000" width="3.2" height="3.2"/>
 	</g>
	<g id="hochiminhcity">
				<rect x="671.4" y="276" fill="#dd0000" width="3.2" height="3.2"/>
 	</g>
	<g id="bangkok">
				<rect x="660.5" y="270.5" fill="#dd0000" width="3.2" height="3.2"/>
 	</g>
	<g id="mumbai">
			<rect x="590.1" y="254.3" fill="#dd0000" width="3.2" height="3.2"/>
 	</g>
	<g id="gurgaon">
			<rect x="606.4" y="221.8" fill="#dd0000" width="3.2" height="3.2"/>
 	</g>
	<g id="bangalore">
			<rect x="601" y="265.1" fill="#dd0000" width="3.2" height="3.2"/>
 	</g>
  </g>
  <g id="emeaarea">
	<g id="dubai">
			<rect x="541.4" y="238" fill="#dd0000" width="3.2" height="3.2"/>
 	</g>
  </g>
  <g id="americasarea">
	<g id="buenosaires">
			<rect x="270.5" y="400.6" fill="#dd0000" width="3.2" height="3.2"/>
 	</g>
	<g id="saopaulo">
			<rect x="286.8" y="368" fill="#dd0000" width="3.2" height="3.2"/>
 	</g>
	<g id="newyork">
			<rect x="232.6" y="178.5" fill="#dd0000" width="3.2" height="3.2"/>
 	</g>
	<g id="toronto">
			<rect x="211" y="162.2" fill="#dd0000" width="3.2" height="3.2"/>
 	</g>
  </g>
</g>
</g>
</svg>
